<?xml version="1.0" encoding="utf-8"?>
<!-- Generator: Adobe Illustrator 22.1.0, SVG Export Plug-In . SVG Version: 6.00 Build 0)  -->
<svg version="1.1" id="Capa_1" xmlns="http://www.w3.org/2000/svg" xmlns:xlink="http://www.w3.org/1999/xlink" x="0px" y="0px"
	 viewBox="0 0 508 564" style="enable-background:new 0 0 508 564;" xml:space="preserve">
<style type="text/css">
	.st0{fill:#7388F9;}
	.st1{fill:#40459B;}
	.st2{fill:#FFFFFF;}
	.st3{fill:#384FAF;}
	.st4{fill:#EAEEF5;}
</style>
<g>
	<path class="st0" d="M357.1,481c-5.2,2.6-9.9,6-15.4,7.9c-4.7-4.2-9.4-3.7-14.6-0.6c-11.5,6.7-23.1,13.1-34.8,19.6
		c-6.4,3.6-12.9,6.8-20.1,8.7c-7.5,1.9-8.5,1.2-8.5-6.5c0-75.5,0-150.9-0.1-226.4c0-5.5,1.9-8.8,6.8-11.5
		c38-21.1,75.8-42.3,113.6-63.6c22.8-12.8,45.5-25.6,68.3-38.4c5.7-3.2,6.8-2.8,8.7,3.5c2.2,7.2,3.5,14.5,3.5,22.1
		c-0.1,20.8,0.1,41.6-0.1,62.5c-0.1,6.4,1.6,11,8.1,13c0,4.5,0,9.1,0,13.6c-6.8,2.1-8,3.7-8,11.2c0,24.3-0.3,48.6,0,72.9
		c0.4,28.4-11.7,49-36.5,62.7c-21.6,11.8-42.9,24.1-64.3,36.1C356.5,471.9,356,473.1,357.1,481z M346.7,416.9
		c8.6-4.8,16.7-9.4,24.8-13.9c1.6-0.9,2.3-2.3,1.5-3.7c-1-1.9-2.4-0.1-3.2,0.5c-2.8,2.1-4,1.1-5.3-1.8
		c-6.6-15.4-13.3-30.8-20.1-46.2c-1.1-2.5-1.1-4.6-0.2-7.1c5.3-15.1,10.4-30.2,15.5-45.3c1-3.1,2.3-5.8,5.7-7c2.3-0.8,3-2.5,1.7-5.2
		c-5.2,2.9-10.4,5.8-15.6,8.8c-1.9,1.1-2.1,4.2-0.7,4.1c5.6-0.7,2.2,2.5,1.8,3.8c-5.9,16.4-11.9,32.8-17.9,49.2
		c-1.4,4-2.9,7.9-4.3,11.9c-0.8-14.9-0.9-29.7-0.8-44.5c0-3.6-1.3-7.7,2.8-10.3c0.7-0.5,0.4-1.9-0.4-3.2
		c-6.9,3.9-13.9,7.8-20.8,11.6c-2,1.1-2,2.7-1.3,4.3c1.7,0.2,2.5-1.8,4.6-1.1c0,1.4,0,2.8,0,4.3c0,33.3,0,66.6,0,99.9
		c0,3,0,5.5-3.5,6.7c-2.2,0.8-1.8,2.7-1.1,4.8c7.1-4,13.8-7.8,20.6-11.6c2-1.1,3.2-4,1-4.3c-3.5-0.5-2.1-2.5-2.1-3.8
		c-0.1-10.7,0.1-21.3-0.2-32c-0.1-5,1.1-9.3,4-14.1c4.7,11.2,9.2,21.9,13.6,32.6c1.2,2.9,4.1,6-0.3,8.9
		C346.3,413.7,346.7,415.3,346.7,416.9z M424.5,313.2c0-3.9,0.2-9.1,0-14.3c-0.4-9-1.8-17.9-5.7-26.2c-3.8-8.1-10.1-9.8-18.1-6.1
		c-11.2,5.2-17.8,14.2-22,25.2c-8.5,22-9.1,44.9-7.6,67.9c0.6,8.8,1.9,17.6,6,25.6c4.2,8.2,10,9.7,18.2,5.8
		c11.2-5.4,18.2-14.1,22.4-25.6C423.6,349.1,425,331.9,424.5,313.2z"/>
	<path class="st1" d="M472.5,271.3c-6.5-1.9-8.2-6.6-8.1-13c0.3-20.8,0-41.6,0.1-62.5c0-7.6-1.2-14.9-3.5-22.1c-2-6.3-3-6.7-8.7-3.5
		c-22.8,12.8-45.5,25.6-68.3,38.4c-37.9,21.2-75.7,42.5-113.6,63.6c-4.9,2.7-6.8,5.9-6.8,11.5c0.1,75.5,0.1,150.9,0.1,226.4
		c0,7.7,1,8.4,8.5,6.5c7.1-1.9,13.7-5.1,20.1-8.7c11.6-6.5,23.3-12.9,34.8-19.6c5.2-3,9.9-3.5,14.6,0.6c1.3,7.9,0.8,9.1-6.5,13.1
		c-13.5,7.6-26.9,15.3-40.6,22.5c-25.8,13.5-51.9,13.8-77.4-0.3c-48.4-26.7-96.7-53.8-144.8-81.2c-26.8-15.3-40.5-39.1-40.7-69.8
		c-0.4-59.5-0.4-119,0-178.5c0.2-31.2,14.3-55,41.5-70.4c47.1-26.7,94.4-53.2,141.7-79.6c27.5-15.3,55.1-15.3,82.7,0.2
		c46.9,26.4,93.9,52.7,140.8,79.1c27.8,15.7,41.5,39.9,42,71.6c0.3,21.7,0,43.3,0.1,65c0,4.8-1.4,8.5-6.2,10.1c0,0-0.4-0.2-0.4-0.2
		l-0.2,0.4C473.3,271.2,472.9,271.3,472.5,271.3z M256,261.5c2.8,0.2,4.8-1.4,7-2.6c35.6-20,71.2-40,106.8-60
		c24.8-13.9,49.6-27.7,74.3-41.5c5.9-3.3,6-4.2,1.1-8.9c-4.8-4.6-10.2-8.5-16.1-11.8c-46.3-26-92.6-52.1-139-78
		c-22.9-12.8-45.8-12.6-68.7,0.3c-46,25.9-92.1,51.6-138.1,77.5c-6.1,3.4-11.8,7.5-16.9,12.4c-4.2,4-4.2,5.4,0.8,8.1
		c61.2,34.4,122.5,68.7,183.8,103C252.6,260.7,254.1,261.7,256,261.5z M248.5,397.1c0-38.2-0.1-76.3,0.1-114.5c0-4.7-1.5-7.7-5.7-10
		c-36.2-20.1-72.4-40.4-108.5-60.6c-25-14-50-28.1-75-42.2c-5.2-2.9-6.4-2.5-8.2,3.1c-2,6.2-3.6,12.4-3.6,18.9c0,62,0,124,0.1,186
		c0,3.6,0.8,7.3,1.5,10.8c4.4,19.9,16.9,33.3,34.2,43c46.5,26,92.9,52,139.3,78.1c5.8,3.3,11.9,5.7,18.4,7.4c6.4,1.8,7.5,0.8,7.5-6
		C248.5,473.1,248.5,435.1,248.5,397.1z"/>
	<path class="st1" d="M357.1,481c-1.1-7.9-0.6-9.1,6.6-13.1c21.4-12.1,42.8-24.3,64.3-36.1c24.8-13.6,36.9-34.3,36.5-62.7
		c-0.4-24.3-0.1-48.6,0-72.9c0-7.4,1.3-9.1,8-11.2c6.5,2,7.9,3.6,7.9,10.2c0,26.1,0.3,52.2-0.1,78.4c-0.5,30.7-14.1,54.3-40.7,69.8
		c-22.8,13.3-46,25.9-69,39C365.7,485.1,361.3,484.9,357.1,481z"/>
	<polygon class="st0" points="473.7,271.2 473.9,270.8 474.2,271 474,271.3 	"/>
	<path class="st2" d="M346.7,416.9c0-1.7-0.4-3.2,0.1-3.5c4.4-2.9,1.5-6,0.3-8.9c-4.4-10.7-8.9-21.4-13.6-32.6
		c-3,4.8-4.2,9.1-4,14.1c0.3,10.7,0,21.3,0.2,32c0,1.3-1.4,3.3,2.1,3.8c2.2,0.3,1,3.1-1,4.3c-6.8,3.8-13.6,7.6-20.6,11.6
		c-0.7-2.1-1.1-4,1.1-4.8c3.5-1.2,3.5-3.8,3.5-6.7c-0.1-33.3,0-66.6,0-99.9c0-1.5,0-2.9,0-4.3c-2.1-0.7-2.9,1.3-4.6,1.1
		c-0.7-1.6-0.8-3.2,1.3-4.3c6.9-3.9,13.9-7.8,20.8-11.6c0.8,1.3,1.1,2.7,0.4,3.2c-4.1,2.6-2.8,6.7-2.8,10.3
		c-0.1,14.8,0,29.5,0.8,44.5c1.4-4,2.9-7.9,4.3-11.9c6-16.4,12-32.8,17.9-49.2c0.5-1.3,3.9-4.5-1.8-3.8c-1.4,0.2-1.2-3,0.7-4.1
		c5.1-3,10.3-5.8,15.6-8.8c1.2,2.7,0.5,4.4-1.7,5.2c-3.3,1.2-4.6,3.9-5.7,7c-5.1,15.1-10.2,30.2-15.5,45.3c-0.9,2.6-0.9,4.7,0.2,7.1
		c6.8,15.3,13.6,30.7,20.1,46.2c1.3,3,2.4,3.9,5.3,1.8c0.8-0.6,2.2-2.4,3.2-0.5c0.8,1.4,0,2.8-1.5,3.7
		C363.4,407.6,355.3,412.1,346.7,416.9z"/>
	<path class="st2" d="M424.5,313.2c0.5,18.6-0.9,35.8-6.9,52.4c-4.2,11.4-11.2,20.2-22.4,25.6c-8.2,3.9-14,2.4-18.2-5.8
		c-4.1-8-5.4-16.8-6-25.6c-1.5-23.1-1-46,7.6-67.9c4.3-11,10.8-20.1,22-25.2c8.1-3.7,14.3-2,18.1,6.1c3.9,8.3,5.3,17.1,5.7,26.2
		C424.7,304.1,424.5,309.3,424.5,313.2z M408.5,323.6c0-8.5,0-17,0-25.5c0-6.3-0.6-12.6-2-18.8c-0.6-2.6-1.3-5.4-4.3-6.2
		c-3.1-0.8-5.5,1.1-7.5,3.1c-4.2,4.2-5.6,9.7-6.3,15.4c-2.9,23.4-1.7,46.8-1.4,70.3c0.1,6.1,0.2,12.3,2,18.3c1.8,6,5.3,7.2,10.4,3.6
		c4.5-3.3,6.1-8.2,7-13.3C409.3,354.9,408.4,339.2,408.5,323.6z"/>
	<path class="st3" d="M256,261.5c-1.9,0.2-3.4-0.7-5-1.6c-61.3-34.3-122.5-68.6-183.8-103c-4.9-2.8-5-4.1-0.8-8.1
		c5.1-4.8,10.7-8.9,16.9-12.4c46-25.8,92.1-51.6,138.1-77.5c22.9-12.9,45.8-13,68.7-0.3c46.4,25.9,92.7,51.9,139,78
		c5.8,3.3,11.2,7.1,16.1,11.8c4.9,4.7,4.8,5.6-1.1,8.9c-24.8,13.9-49.6,27.7-74.3,41.5c-35.6,20-71.2,40-106.8,60
		C260.8,260.1,258.8,261.7,256,261.5z"/>
	<path class="st4" d="M248.5,397.1c0,38,0,76,0,114c0,6.8-1.1,7.8-7.5,6c-6.4-1.8-12.5-4.2-18.4-7.4
		c-46.4-26.1-92.8-52.1-139.3-78.1c-17.3-9.7-29.8-23.1-34.2-43c-0.8-3.5-1.5-7.2-1.5-10.8c-0.1-62-0.1-124-0.1-186
		c0-6.6,1.6-12.8,3.6-18.9c1.8-5.5,3-6,8.2-3.1c25,14,50,28.1,75,42.2c36.2,20.3,72.3,40.5,108.5,60.6c4.2,2.3,5.7,5.3,5.7,10
		C248.4,320.8,248.5,358.9,248.5,397.1z M191.5,366.3c11.9,4.4,14.4,13.6,14.9,23.9c0.3,7.5-0.1,15,0.2,22.5
		c0.3,11.1,5.3,19.4,15.7,24c1.3,0.6,2.9,2,4,0.5c1-1.4,0.2-3.7-1.2-4.3c-4.3-2-4.2-5.6-4.2-9.3c-0.1-5.7-0.2-11.3,0-17
		c0.5-10.6-3.1-19.9-8.7-28.7c-0.9-1.4-1.8-2.7-2.9-4.5c5.9-0.9,8.4-5,9.6-9.8c3.7-14.6,2.4-28.3-6.6-40.9
		c-9.6-13.6-25.2-18-38.3-26.5c-0.8,2-0.9,3.5,0.3,3.9c4.5,1.6,3.8,5.2,3.8,8.6c0,30.6,0,61.3,0,91.9c0,1.2,0,2.3,0,3.5
		c-0.1,1.2,0,2.5-1.9,1.7c-0.9-0.4-2.1-1.7-2.6,0.4c-0.3,1.5,0.4,2.5,1.7,3.2c6.2,3.4,12.5,6.9,18.9,10.4c0.6-2.1,0.8-3.7-1.2-4.7
		c-1.2-0.6-1.4-1.7-1.4-2.9C191.5,397,191.5,381.9,191.5,366.3z M134.7,274.6c-0.4,1.6-0.8,2.8-1.1,4.1c-6.7,28.5-13.4,57-19.9,85.5
		c-1,4.5-1.9,7.4-7.4,3.6c2.9,7.6,10.5,8,16.3,11.8c-6.9-7.5-2.4-14.9-0.9-22.8c7.4,4.1,14.5,8,21.6,11.9c1.1,0.6,1.7,1.5,1.9,2.7
		c0.7,5.9,1.5,11.8,2.3,18.2c-1.8-0.8-3.1-1.4-4.5-1.9c-0.3,3.9,13.4,13.2,24.2,16.5c0.4-1.5,0.7-3.2-1.1-3.9
		c-3.6-1.2-3.8-4.2-4.3-7.1c-6.1-36.3-12.4-72.5-18.1-108.8C142.9,278.3,139.1,276.9,134.7,274.6z M103.5,369.5
		c0-10.4-0.1-19.7,0.1-29c0-2.3-1.1-3.7-2.9-3.9c-2.7-0.3-1.7,2.2-1.9,3.5c-0.5,3.1-0.6,6.3-1.2,9.4c-0.9,5.2-3.7,7.7-7.8,7.3
		c-6.1-0.6-10.7-4.6-10.7-9.3c0-19.2,0-38.3,0-57.5c0-12.7,0-25.3,0.1-38c0-1.3-1.1-3.1,1-3.8c0.9-0.3,2.3,1.2,2.6-1
		c0.2-1.7-1.1-2.3-2.2-2.9c-5.2-2.9-10.4-5.9-15.7-8.7c-0.7-0.4-1.6-1.8-2.5-0.6c-0.8,1-0.5,2.6,0.6,3c2.8,1.1,2.8,3.3,2.8,5.7
		c0,32,0,64,0,95.9c0,0.8,0,1.7,0,2.5c0,0.9-0.1,1.6-1.3,1.5c-0.9,0-2-2.1-2.7,0.1c-0.4,1.4,0.1,2.5,1.5,3.3
		C76.2,354.5,89.4,361.8,103.5,369.5z"/>
	<path class="st0" d="M408.5,323.6c-0.1,15.6,0.8,31.3-2,46.8c-0.9,5.1-2.5,10.1-7,13.3c-5,3.7-8.6,2.4-10.4-3.6
		c-1.8-6-1.9-12.2-2-18.3c-0.4-23.4-1.5-46.9,1.4-70.3c0.7-5.7,2.1-11.2,6.3-15.4c2-2,4.4-3.9,7.5-3.1c3,0.8,3.7,3.6,4.3,6.2
		c1.4,6.2,2,12.5,2,18.8C408.5,306.6,408.5,315.1,408.5,323.6z"/>
	<path class="st3" d="M191.5,366.3c0,15.6,0,30.8,0,45.9c0,1.2,0.2,2.3,1.4,2.9c2,1,1.7,2.5,1.2,4.7c-6.4-3.6-12.6-7-18.9-10.4
		c-1.3-0.7-2-1.8-1.7-3.2c0.5-2.1,1.6-0.8,2.6-0.4c1.9,0.9,1.9-0.5,1.9-1.7c0.1-1.2,0-2.3,0-3.5c0-30.6,0-61.3,0-91.9
		c0-3.4,0.7-7-3.8-8.6c-1.1-0.4-1-1.9-0.3-3.9c13.1,8.6,28.7,13,38.3,26.5c8.9,12.6,10.3,26.4,6.6,40.9c-1.2,4.9-3.7,8.9-9.6,9.8
		c1.2,1.8,2.1,3.1,2.9,4.5c5.6,8.7,9.1,18,8.7,28.7c-0.2,5.7-0.1,11.3,0,17c0,3.7-0.1,7.3,4.2,9.3c1.4,0.6,2.3,2.9,1.2,4.3
		c-1.1,1.5-2.7,0.1-4-0.5c-10.4-4.6-15.3-12.9-15.7-24c-0.2-7.5,0.2-15-0.2-22.5C205.9,379.9,203.3,370.7,191.5,366.3z M191.5,310.6
		c0,16.3,0,32.1,0,47.9c0,1.7,0.2,3,1.9,4.1c6.8,4.4,10.9,2.8,12.1-5.3c1.5-9.8,1.5-19.6-0.3-29.4
		C203.8,320.1,200.5,313.4,191.5,310.6z"/>
	<path class="st3" d="M134.7,274.6c4.4,2.3,8.2,3.8,9.1,9.9c5.7,36.3,12,72.6,18.1,108.8c0.5,2.9,0.7,5.9,4.3,7.1
		c1.8,0.6,1.4,2.3,1.1,3.9c-10.8-3.3-24.5-12.6-24.2-16.5c1.4,0.6,2.7,1.2,4.5,1.9c-0.8-6.4-1.6-12.3-2.3-18.2
		c-0.2-1.3-0.8-2.1-1.9-2.7c-7.1-3.9-14.2-7.8-21.6-11.9c-1.6,7.9-6.1,15.3,0.9,22.8c-5.8-3.8-13.4-4.2-16.3-11.8
		c5.5,3.8,6.4,0.9,7.4-3.6c6.5-28.5,13.2-57,19.9-85.5C133.9,277.4,134.2,276.1,134.7,274.6z M143.9,364.5c-3.8-20-6.1-39-10.6-57.5
		c-3.4,13.9-6.5,27.7-9.5,41.5c-0.4,2-1.6,4.1,1.2,5.6C131,357.4,137,360.7,143.9,364.5z"/>
	<path class="st3" d="M103.5,369.5c-14.1-7.8-27.3-15.1-40.5-22.4c-1.4-0.8-1.9-1.9-1.5-3.3c0.7-2.2,1.8-0.1,2.7-0.1
		c1.2,0,1.3-0.7,1.3-1.5c0-0.8,0-1.7,0-2.5c0-32,0-64,0-95.9c0-2.4,0-4.6-2.8-5.7c-1.1-0.4-1.4-2-0.6-3c0.9-1.2,1.8,0.2,2.5,0.6
		c5.3,2.8,10.5,5.8,15.7,8.7c1.2,0.6,2.4,1.2,2.2,2.9c-0.2,2.2-1.7,0.6-2.6,1c-2.1,0.7-1,2.6-1,3.8c-0.1,12.7-0.1,25.3-0.1,38
		c0,19.2,0,38.3,0,57.5c0,4.7,4.6,8.7,10.7,9.3c4.1,0.4,6.9-2.1,7.8-7.3c0.6-3.1,0.7-6.3,1.2-9.4c0.2-1.3-0.8-3.8,1.9-3.5
		c1.9,0.2,3,1.6,2.9,3.9C103.4,349.8,103.5,359.2,103.5,369.5z"/>
	<path class="st4" d="M191.5,310.6c9,2.8,12.3,9.6,13.8,17.4c1.8,9.7,1.7,19.6,0.3,29.4c-1.2,8.2-5.4,9.7-12.1,5.3
		c-1.7-1.1-1.9-2.4-1.9-4.1C191.5,342.7,191.5,326.8,191.5,310.6z"/>
	<path class="st4" d="M143.9,364.5c-7-3.8-12.9-7.2-18.9-10.3c-2.8-1.5-1.6-3.7-1.2-5.6c3-13.8,6-27.6,9.5-41.5
		C137.9,325.5,140.1,344.5,143.9,364.5z"/>
</g>
</svg>
